<svg width="40" height="78" viewBox="0 0 40 78" fill="none" xmlns="http://www.w3.org/2000/svg">
<path fill-rule="evenodd" clip-rule="evenodd" d="M16.7943 77.4766L23.3448 61.5335L39.1592 54.9292L32.6086 38.9862L39.1592 23.042L23.3448 16.4377L16.7943 0.494644L0.108093 7.46306V38.6221L0.108144 39.2361L0.108093 39.8652V70.5082L16.7943 77.4766ZM1.85178 36.8641V8.63771L15.8506 2.79156L21.6491 16.9042L1.85178 36.8641ZM22.8821 18.1473L36.8809 23.9934L31.0824 38.1072H3.08475L22.8821 18.1473ZM3.08586 39.8652H31.0824L36.8809 53.9778L22.8821 59.8239L3.08586 39.8652ZM21.6491 61.067L15.8506 75.1796L1.85178 69.3335V41.1071L21.6491 61.067Z" fill="#243054"/>
<path d="M27.3183 28.7669C27.3183 30.1194 26.2299 31.2156 24.8885 31.2156C23.5481 31.2156 22.4598 30.1194 22.4598 28.7669C22.4598 27.4145 23.5481 26.3183 24.8885 26.3183C26.2299 26.3183 27.3183 27.4145 27.3183 28.7669Z" fill="#243054"/>
<path d="M13.5512 14.0744C13.5512 15.4269 12.464 16.5242 11.1225 16.5242C9.78109 16.5242 8.69385 15.4269 8.69385 14.0744C8.69385 12.722 9.78109 11.6258 11.1225 11.6258C12.464 11.6258 13.5512 12.722 13.5512 14.0744Z" fill="#243054"/>
<path d="M13.5512 62.3497C13.5512 63.7022 12.464 64.7983 11.1225 64.7983C9.78109 64.7983 8.69385 63.7022 8.69385 62.3497C8.69385 60.9972 9.78109 59.9011 11.1225 59.9011C12.464 59.9011 13.5512 60.9972 13.5512 62.3497Z" fill="#243054"/>
<path d="M27.3183 48.357C27.3183 49.7095 26.2299 50.8057 24.8885 50.8057C23.5481 50.8057 22.4598 49.7095 22.4598 48.357C22.4598 47.0046 23.5481 45.9084 24.8885 45.9084C26.2299 45.9084 27.3183 47.0046 27.3183 48.357Z" fill="#243054"/>
</svg>
